<?xml version="1.0" standalone="no"?><!DOCTYPE svg PUBLIC "-//W3C//DTD SVG 1.1//EN" "http://www.w3.org/Graphics/SVG/1.1/DTD/svg11.dtd"><svg t="1531893134082" class="icon" style="" viewBox="0 0 1077 1024" version="1.1" xmlns="http://www.w3.org/2000/svg" p-id="2749" xmlns:xlink="http://www.w3.org/1999/xlink" width="210.3515625" height="200"><defs><style type="text/css"></style></defs><path d="M0 0h485.052632v916.210526H0V0z m161.684211 700.631579c32.336842 0 53.894737-21.557895 53.894736-53.894737s-21.557895-53.894737-53.894736-53.894737-53.894737 21.557895-53.894737 53.894737 21.557895 53.894737 53.894737 53.894737z m215.578947-517.389474V107.789474H107.789474v215.578947h269.473684V183.242105zM592.842105 107.789474h485.052632v916.210526h-485.052632V107.789474z m161.684211 700.631579c32.336842 0 53.894737-21.557895 53.894737-53.894737s-21.557895-53.894737-53.894737-53.894737-53.894737 21.557895-53.894737 53.894737 21.557895 53.894737 53.894737 53.894737z m215.578947-377.263158V215.578947h-269.473684v215.578948h269.473684z" p-id="2750"></path></svg>